<mxfile host="app.diagrams.net" modified="2023-05-31T18:01:58.804Z" agent="Mozilla/5.0 (Windows NT 10.0; Win64; x64) AppleWebKit/537.36 (KHTML, like Gecko) Chrome/115.0.0.0 Safari/537.36" etag="DZ7xb-RDmqIwvQSloOyk" version="21.3.6" type="device">
  <diagram name="Page-1" id="QwYidWDpBuddhFj1rRWs">
    <mxGraphModel dx="1434" dy="876" grid="1" gridSize="10" guides="1" tooltips="1" connect="1" arrows="1" fold="1" page="1" pageScale="1" pageWidth="850" pageHeight="1100" math="0" shadow="0">
      <root>
        <mxCell id="0" />
        <mxCell id="1" parent="0" />
        <mxCell id="i-HGSuWPJarvPxCTBsbL-3" style="edgeStyle=orthogonalEdgeStyle;rounded=0;orthogonalLoop=1;jettySize=auto;html=1;exitX=1;exitY=0.5;exitDx=0;exitDy=0;entryX=0;entryY=0.5;entryDx=0;entryDy=0;" edge="1" parent="1" source="i-HGSuWPJarvPxCTBsbL-1" target="i-HGSuWPJarvPxCTBsbL-5">
          <mxGeometry relative="1" as="geometry">
            <mxPoint x="210" y="180" as="targetPoint" />
          </mxGeometry>
        </mxCell>
        <mxCell id="i-HGSuWPJarvPxCTBsbL-1" value="&lt;font style=&quot;font-size: 15px;&quot;&gt;open app&lt;/font&gt;" style="rounded=0;whiteSpace=wrap;html=1;" vertex="1" parent="1">
          <mxGeometry x="40" y="150" width="120" height="60" as="geometry" />
        </mxCell>
        <mxCell id="i-HGSuWPJarvPxCTBsbL-2" value="&lt;font style=&quot;font-size: 13px;&quot;&gt;click or read&lt;/font&gt;" style="endArrow=classic;html=1;rounded=0;exitX=1;exitY=0.5;exitDx=0;exitDy=0;entryX=0;entryY=0.5;entryDx=0;entryDy=0;" edge="1" parent="1" source="i-HGSuWPJarvPxCTBsbL-5" target="i-HGSuWPJarvPxCTBsbL-6">
          <mxGeometry width="50" height="50" relative="1" as="geometry">
            <mxPoint x="310" y="179.5" as="sourcePoint" />
            <mxPoint x="360" y="179.5" as="targetPoint" />
          </mxGeometry>
        </mxCell>
        <mxCell id="i-HGSuWPJarvPxCTBsbL-5" value="Button Scan" style="rounded=0;whiteSpace=wrap;html=1;" vertex="1" parent="1">
          <mxGeometry x="190" y="150" width="100" height="60" as="geometry" />
        </mxCell>
        <mxCell id="i-HGSuWPJarvPxCTBsbL-10" value="Video1" style="edgeStyle=orthogonalEdgeStyle;rounded=0;orthogonalLoop=1;jettySize=auto;html=1;exitX=1;exitY=0.5;exitDx=0;exitDy=0;entryX=0;entryY=0.5;entryDx=0;entryDy=0;" edge="1" parent="1" source="i-HGSuWPJarvPxCTBsbL-6" target="i-HGSuWPJarvPxCTBsbL-7">
          <mxGeometry relative="1" as="geometry" />
        </mxCell>
        <mxCell id="i-HGSuWPJarvPxCTBsbL-16" value="Pdf2" style="edgeStyle=orthogonalEdgeStyle;rounded=0;orthogonalLoop=1;jettySize=auto;html=1;exitX=1;exitY=0.5;exitDx=0;exitDy=0;entryX=0;entryY=0.5;entryDx=0;entryDy=0;" edge="1" parent="1" source="i-HGSuWPJarvPxCTBsbL-6" target="i-HGSuWPJarvPxCTBsbL-13">
          <mxGeometry relative="1" as="geometry" />
        </mxCell>
        <mxCell id="i-HGSuWPJarvPxCTBsbL-6" value="result" style="rhombus;whiteSpace=wrap;html=1;" vertex="1" parent="1">
          <mxGeometry x="400" y="140" width="80" height="80" as="geometry" />
        </mxCell>
        <mxCell id="i-HGSuWPJarvPxCTBsbL-7" value="play Video1" style="rounded=0;whiteSpace=wrap;html=1;" vertex="1" parent="1">
          <mxGeometry x="580" y="90" width="100" height="60" as="geometry" />
        </mxCell>
        <mxCell id="i-HGSuWPJarvPxCTBsbL-13" value="open Pdf2" style="rounded=0;whiteSpace=wrap;html=1;" vertex="1" parent="1">
          <mxGeometry x="580" y="300" width="100" height="60" as="geometry" />
        </mxCell>
        <mxCell id="i-HGSuWPJarvPxCTBsbL-19" value="" style="endArrow=none;dashed=1;html=1;rounded=0;" edge="1" parent="1">
          <mxGeometry width="50" height="50" relative="1" as="geometry">
            <mxPoint x="630" y="270" as="sourcePoint" />
            <mxPoint x="630" y="270" as="targetPoint" />
          </mxGeometry>
        </mxCell>
        <mxCell id="i-HGSuWPJarvPxCTBsbL-18" value="play Video2" style="rounded=0;whiteSpace=wrap;html=1;" vertex="1" parent="1">
          <mxGeometry x="580" y="200" width="100" height="60" as="geometry" />
        </mxCell>
        <mxCell id="i-HGSuWPJarvPxCTBsbL-20" value="" style="endArrow=none;dashed=1;html=1;dashPattern=1 3;strokeWidth=2;rounded=0;" edge="1" parent="1">
          <mxGeometry width="50" height="50" relative="1" as="geometry">
            <mxPoint x="630" y="290" as="sourcePoint" />
            <mxPoint x="629.5" y="260" as="targetPoint" />
          </mxGeometry>
        </mxCell>
        <mxCell id="i-HGSuWPJarvPxCTBsbL-21" value="" style="endArrow=none;dashed=1;html=1;dashPattern=1 3;strokeWidth=2;rounded=0;" edge="1" parent="1">
          <mxGeometry width="50" height="50" relative="1" as="geometry">
            <mxPoint x="630" y="160" as="sourcePoint" />
            <mxPoint x="630" y="190" as="targetPoint" />
          </mxGeometry>
        </mxCell>
        <mxCell id="i-HGSuWPJarvPxCTBsbL-22" value="Video2" style="endArrow=classic;html=1;rounded=0;" edge="1" parent="1" target="i-HGSuWPJarvPxCTBsbL-18">
          <mxGeometry x="0.451" y="-9" width="50" height="50" relative="1" as="geometry">
            <mxPoint x="480" y="180" as="sourcePoint" />
            <mxPoint x="560" y="180" as="targetPoint" />
            <Array as="points">
              <mxPoint x="530" y="180" />
            </Array>
            <mxPoint as="offset" />
          </mxGeometry>
        </mxCell>
      </root>
    </mxGraphModel>
  </diagram>
</mxfile>
